<mxfile host="app.diagrams.net" modified="2024-02-26T15:27:31.101Z" agent="Mozilla/5.0 (Windows NT 10.0; Win64; x64) AppleWebKit/537.36 (KHTML, like Gecko) Chrome/122.0.0.0 Safari/537.36 Edg/122.0.0.0" version="23.1.6" etag="buwm9T3T0GzSoNoinaYj" type="github">
  <diagram name="Страница — 1" id="LZP7ssBB4Ta1LimoycUX">
    <mxGraphModel>
      <root>
        <mxCell id="0" />
        <mxCell id="1" parent="0" />
      </root>
    </mxGraphModel>
  </diagram>
</mxfile>
